<svg xmlns="http://www.w3.org/2000/svg" width="400" height="400" viewBox="0 0 124 124" fill="none">
  <!-- 背景：深蓝渐变 -->
  <defs>
    <linearGradient id="ocean" x1="0" y1="0" x2="124" y2="124" gradientUnits="userSpaceOnUse">
      <stop stop-color="#3B82F6"/>
      <stop offset="1" stop-color="#06B6D4"/>
    </linearGradient>
  </defs>
  <rect width="124" height="124" rx="24" fill="url(#ocean)"/>
  
  <!-- 斜切几何：浅蓝 -->
  <path d="M24 42v58a4 4 0 0 0 4 4h58c3 0 4.5-3.6 2.4-5.7L29.7 39.6C27.6 37.5 24 39 24 42Z" fill="#BFDBFE"/>
  
  <!-- 中心圆：深蓝 -->
  <circle cx="63" cy="38" r="16" fill="#0C4A6E"/>
  
  <!-- 角标：浅蓝小方块 -->
  <rect x="82.5" y="82.5" width="14" height="14" rx="3"
        transform="rotate(-45 82.5 82.5)" fill="#E0F2FE"/>
  
  <!-- 爱心（放在外面右上角） -->
  <path d="M103 28l-3-3c-2-2-3.3-3.3-3.3-5.3 0-1.7 1.3-3 3-3 1.2 0 2.2 0.6 2.8 1.5 0.6-0.9 1.6-1.5 2.8-1.5 1.7 0 3 1.3 3 3 0 2-1.3 3.3-3.3 5.3l-3 3z"
        fill="#FCA5A5"/>
  
  <path d="M100 60l0.8 2h2l-1.6 1.2 0.6 2-1.8-1.2-1.8 1.2 0.6-2-1.6-1.2h2l0.8-2z" fill="#93C5FD"/>
</svg>
